<svg xmlns="http://www.w3.org/2000/svg" width="1280" height="760" viewBox="0 0 1280 760" role="img" aria-label="DeepSeek Harness Web UI task flow evidence">
  <defs>
    <filter id="shadow" x="-20%" y="-20%" width="140%" height="140%"><feDropShadow dx="0" dy="10" stdDeviation="12" flood-color="#000" flood-opacity="0.28"/></filter>
    <linearGradient id="bg" x1="0" y1="0" x2="1" y2="1"><stop offset="0" stop-color="#0b1020"/><stop offset="1" stop-color="#111827"/></linearGradient>
    <style><![CDATA[
      .title { font: 700 34px -apple-system,BlinkMacSystemFont,"Segoe UI",sans-serif; fill: #e5edf7; }
      .subtitle { font: 500 17px -apple-system,BlinkMacSystemFont,"Segoe UI",sans-serif; fill: #9fb0c8; }
      .label { font: 700 20px -apple-system,BlinkMacSystemFont,"Segoe UI",sans-serif; fill: #e5edf7; }
      .small { font: 500 15px -apple-system,BlinkMacSystemFont,"Segoe UI",sans-serif; fill: #9fb0c8; }
      .mono { font: 500 18px ui-monospace,SFMono-Regular,Menlo,Consolas,"Liberation Mono",monospace; fill: #e5edf7; }
      .mono-small { font: 500 15px ui-monospace,SFMono-Regular,Menlo,Consolas,"Liberation Mono",monospace; fill: #9fb0c8; }
      .note { font: 600 14px -apple-system,BlinkMacSystemFont,"Segoe UI",sans-serif; fill: #93a4bd; }
    ]]></style>
    <marker id="arrow" viewBox="0 0 10 10" refX="9" refY="5" markerWidth="7" markerHeight="7" orient="auto-start-reverse"><path d="M 0 0 L 10 5 L 0 10 z" fill="#64748b"/></marker>
    <marker id="arrow-blue" viewBox="0 0 10 10" refX="9" refY="5" markerWidth="7" markerHeight="7" orient="auto-start-reverse"><path d="M 0 0 L 10 5 L 0 10 z" fill="#60a5fa"/></marker>
  </defs>
  <rect width="100%" height="100%" fill="url(#bg)"/>
  <circle cx="1050" cy="80" r="180" fill="#1e3a8a" opacity="0.14"/>
  <circle cx="90" cy="690" r="220" fill="#0f766e" opacity="0.12"/>
<text x="54" y="62" class="title">Web UI 实践：让 Harness 改一个会失败的小仓库</text>
<text x="56" y="96" class="subtitle">任务不是闲聊：读文件、定位百分比 bug、编辑代码、跑 npm test、写 PRACTICE_RESULT.md。</text>
<g filter="url(#shadow)">
  <rect x="70" y="155" width="185" height="150" rx="18" fill="#111827" stroke="#60a5fa" stroke-width="2"/>
  <rect x="70" y="155" width="185" height="6" rx="3" fill="#60a5fa"/>
  <text x="92" y="195" class="label">1 选 workspace</text>
  <text x="92" y="225" class="small">
<tspan x="92" dy="0">webui-workspace</tspan>
<tspan x="92" dy="23">权限：Workspace Write</tspan>
</text>
</g><g filter="url(#shadow)">
  <rect x="315" y="155" width="185" height="150" rx="18" fill="#111827" stroke="#a78bfa" stroke-width="2"/>
  <rect x="315" y="155" width="185" height="6" rx="3" fill="#a78bfa"/>
  <text x="337" y="195" class="label">2 读项目文件</text>
  <text x="337" y="225" class="small">
<tspan x="337" dy="0">package.json</tspan>
<tspan x="337" dy="23">src/quote.js</tspan>
<tspan x="337" dy="23">test/quote.test.js</tspan>
</text>
</g><g filter="url(#shadow)">
  <rect x="560" y="155" width="185" height="150" rx="18" fill="#111827" stroke="#a78bfa" stroke-width="2"/>
  <rect x="560" y="155" width="185" height="6" rx="3" fill="#a78bfa"/>
  <text x="582" y="195" class="label">3 定位 bug</text>
  <text x="582" y="225" class="small">
<tspan x="582" dy="0">discountPercent 被当成乘数</tspan>
<tspan x="582" dy="23">应按百分比 / 100</tspan>
</text>
</g><g filter="url(#shadow)">
  <rect x="805" y="155" width="185" height="150" rx="18" fill="#111827" stroke="#a78bfa" stroke-width="2"/>
  <rect x="805" y="155" width="185" height="6" rx="3" fill="#a78bfa"/>
  <text x="827" y="195" class="label">4 编辑代码</text>
  <text x="827" y="225" class="small">
<tspan x="827" dy="0">const discount = subtotal *</tspan>
<tspan x="827" dy="23">  (discountPercent / 100)</tspan>
</text>
</g><g filter="url(#shadow)">
  <rect x="1050" y="155" width="185" height="150" rx="18" fill="#111827" stroke="#34d399" stroke-width="2"/>
  <rect x="1050" y="155" width="185" height="6" rx="3" fill="#34d399"/>
  <text x="1072" y="195" class="label">5 跑测试</text>
  <text x="1072" y="225" class="small">
<tspan x="1072" dy="0">npm test</tspan>
<tspan x="1072" dy="23">2 个用例 PASS</tspan>
</text>
</g><path d="M 255 230 C 285.0 230, 285.0 230, 315 230" fill="none" stroke="#60a5fa" stroke-width="3" marker-end="url(#arrow-blue)"/>
<path d="M 500 230 C 530.0 230, 530.0 230, 560 230" fill="none" stroke="#60a5fa" stroke-width="3" marker-end="url(#arrow-blue)"/>
<path d="M 745 230 C 775.0 230, 775.0 230, 805 230" fill="none" stroke="#60a5fa" stroke-width="3" marker-end="url(#arrow-blue)"/>
<path d="M 990 230 C 1020.0 230, 1020.0 230, 1050 230" fill="none" stroke="#60a5fa" stroke-width="3" marker-end="url(#arrow-blue)"/>
<g filter="url(#shadow)"><rect x="85" y="405" width="1110" height="255" rx="20" fill="#050816" stroke="#263244" stroke-width="2"/><circle cx="119" cy="436" r="7" fill="#fb7185"/><circle cx="143" cy="436" r="7" fill="#fbbf24"/><circle cx="167" cy="436" r="7" fill="#34d399"/><text x="199" y="442" class="mono-small">webui-workspace / final readback</text><text x="120" y="486" class="mono" fill="#9fb0c8">&gt; dsh-webui-practice-workspace@0.1.0 test</text>
<text x="120" y="515" class="mono" fill="#9fb0c8">&gt; node test/quote.test.js</text>
<text x="120" y="544" class="mono" fill="#9fb0c8"></text>
<text x="120" y="573" class="mono" fill="#34d399">PASS applies discountPercent and taxPercent as percentages</text>
<text x="120" y="602" class="mono" fill="#34d399">PASS rejects negative hours or rates</text>
<text x="120" y="631" class="mono" fill="#9fb0c8"></text>
<text x="120" y="660" class="mono" fill="#e5edf7">PRACTICE_RESULT.md: 修改原因、测试输出、修改文件清单已写入</text>
</g><text x="85" y="710" class="note">这张图来自实践日志的脱敏重绘，和 Web UI 截图互补：UI 证明入口，测试输出证明任务链真的闭合。</text>
</svg>
